<?xml version="1.0" encoding="utf-8"?><svg xmlns="http://www.w3.org/2000/svg" xmlns:xlink="http://www.w3.org/1999/xlink" width="1536" height="796" preserveAspectRatio="xMidYMid" viewBox="0 0 1536 796" style="z-index:1;margin-right:-2px;display:block;background-repeat-y:initial;background-repeat-x:initial;background-color:rgb(255, 255, 255);animation-play-state:paused" ><g transform="translate(768,398) scale(1,1) translate(-768,-398)" style="transform:matrix(1, 0, 0, 1, 0, 0);animation-play-state:paused" ><g transform="translate(1689.6,398) scale(100)" opacity="0.9" style="transform:matrix(100, 0, 0, 100, 1689.6, 398);opacity:0.9;animation-play-state:paused" ><path d="M4.608 0 C4.608 9.216 16.291740238538054 3.2583480477076083 9.775044143122832 9.77504414312283 S9.216 4.607999999999999 2.8215862252355015e-16 4.608 S-3.2583480477076083 16.291740238538054 -9.77504414312283 9.775044143122832 S-4.607999999999999 9.216 -4.608 5.643172450471003e-16 S-16.291740238538054 -3.2583480477076074 -9.775044143122834 -9.77504414312283 S-9.216 -4.607999999999998 -8.464758675706504e-16 -4.608 S3.2583480477076057 -16.291740238538054 9.775044143122829 -9.775044143122834 S4.607999999999997 -9.216000000000001 4.608 -1.1286344900942006e-15" fill="#1c2c68" stroke-width="0" transform="matrix(1,0,0,1,0,0)" style="transform:matrix(1, 0, 0, 1, 0, 0);animation-play-state:paused" ></path></g>
<g transform="translate(1873.9199999999998,398) scale(100)" opacity="0.9" style="transform:matrix(100, 0, 0, 100, 1873.92, 398);opacity:0.9;animation-play-state:paused" ><path d="M5.529599999999999 0 C5.529599999999999 11.059199999999999 19.550088286245664 3.9100176572491314 11.7300529717474 11.730052971747398 S11.059199999999999 5.5295999999999985 3.3859034702826017e-16 5.529599999999999 S-3.9100176572491314 19.550088286245664 -11.730052971747398 11.7300529717474 S-5.529599999999998 11.059199999999999 -5.529599999999999 6.7718069405652035e-16 S-19.550088286245668 -3.9100176572491305 -11.730052971747401 -11.730052971747398 S-11.0592 -5.529599999999998 -1.0157710410847805e-15 -5.529599999999999 S3.9100176572491288 -19.550088286245664 11.730052971747396 -11.730052971747401 S5.529599999999997 -11.0592 5.529599999999999 -1.3543613881130407e-15" fill="#8dba19" stroke-width="0" transform="matrix(1,0,0,1,0,0)" style="transform:matrix(1, 0, 0, 1, 0, 0);animation-play-state:paused" ></path></g></g></svg>