<?xml version="1.0" encoding="UTF-8" standalone="no"?><!-- Generator: Gravit.io --><svg xmlns="http://www.w3.org/2000/svg" xmlns:xlink="http://www.w3.org/1999/xlink" style="isolation:isolate" viewBox="0 0 1000 280" width="1000pt" height="280pt"><defs><clipPath id="_clipPath_HmOlj9DSvnJpzNEBHOSeNm3S5C7d2HPY"><rect width="1000" height="280"/></clipPath></defs><g clip-path="url(#_clipPath_HmOlj9DSvnJpzNEBHOSeNm3S5C7d2HPY)"><path d=" M 397.979 122.983 L 397.979 122.983 L 397.979 122.983 Q 420.558 115.181 436.993 115.181 L 436.993 115.181 L 436.993 115.181 Q 457.911 115.181 464.884 126.138 L 464.884 126.138 L 464.884 126.138 Q 468.038 131.284 468.038 137.261 L 468.038 137.261 L 468.038 137.261 Q 468.038 145.562 462.809 154.36 L 462.809 154.36 L 462.809 154.36 Q 457.579 163.159 448.946 170.298 L 448.946 170.298 L 448.946 170.298 Q 428.858 186.733 400.138 190.718 L 400.138 190.718 L 400.138 190.718 Q 400.138 192.544 400.221 196.611 L 400.221 196.611 L 400.221 196.611 Q 400.304 200.679 400.387 205.659 L 400.387 205.659 L 400.387 205.659 Q 400.47 210.64 400.553 216.284 L 400.553 216.284 L 400.553 216.284 Q 400.636 221.929 400.802 227.075 L 400.802 227.075 L 400.802 227.075 Q 401.3 239.858 401.549 241.685 L 401.549 241.685 L 401.549 241.685 Q 401.798 243.511 401.798 244.673 L 401.798 244.673 L 401.798 244.673 Q 401.798 248.823 399.142 250.898 L 399.142 250.898 L 399.142 250.898 Q 396.485 252.974 392.169 252.974 L 392.169 252.974 L 392.169 252.974 Q 391.339 252.974 390.509 252.974 L 390.509 252.974 L 387.853 119.497 L 387.853 119.497 Q 389.347 117.339 391.837 117.505 L 391.837 117.505 L 391.837 117.505 Q 394.327 117.671 395.821 118.833 L 395.821 118.833 L 395.821 118.833 Q 397.315 119.995 397.979 122.983 Z " fill="rgb(0,0,0)"/><path d=" M 446.456 128.794 L 446.456 128.794 L 446.456 128.794 Q 440.978 125.972 434.752 125.972 L 434.752 125.972 L 434.752 125.972 Q 428.526 125.972 422.384 127.134 L 422.384 127.134 L 422.384 127.134 Q 408.438 129.79 401.798 138.921 L 401.798 138.921 L 401.798 138.921 Q 398.81 143.237 398.81 149.546 L 398.81 149.546 L 398.81 149.546 Q 398.81 150.21 398.81 150.874 L 398.81 150.874 L 398.81 179.595 L 398.81 179.595 Q 433.009 171.958 447.286 158.345 L 447.286 158.345 L 447.286 158.345 Q 455.587 150.542 455.587 142.241 L 455.587 142.241 L 455.587 142.241 Q 455.587 133.442 446.456 128.794 Z " fill="rgb(0,0,0)"/><path d=" M 541.915 161.997 L 541.915 161.997 L 541.915 161.997 Q 529.464 181.587 508.712 186.235 L 508.712 186.235 L 508.712 186.235 Q 503.897 187.231 499.996 187.231 L 499.996 187.231 L 499.996 187.231 Q 496.095 187.231 493.521 187.148 L 493.521 187.148 L 493.521 187.148 Q 490.948 187.065 487.794 186.401 L 487.794 186.401 L 487.794 186.401 Q 484.64 185.737 481.983 184.243 L 481.983 184.243 L 481.983 184.243 Q 475.841 180.757 475.841 174.448 L 475.841 174.448 L 475.841 174.448 Q 475.177 171.46 475.177 167.725 L 475.177 167.725 L 475.177 167.725 Q 475.177 163.989 476.837 157.847 L 476.837 157.847 L 476.837 157.847 Q 478.497 151.704 482.896 144.565 L 482.896 144.565 L 482.896 144.565 Q 487.296 137.427 493.604 131.45 L 493.604 131.45 L 493.604 131.45 Q 506.72 118.833 521.993 115.181 L 521.993 115.181 L 521.993 115.181 Q 526.476 114.185 530.211 114.185 L 530.211 114.185 L 530.211 114.185 Q 533.946 114.185 536.935 114.683 L 536.935 114.683 L 536.935 114.683 Q 546.563 114.683 549.884 127.798 L 549.884 127.798 L 549.884 127.798 Q 552.042 136.099 552.457 150.957 L 552.457 150.957 L 552.457 150.957 Q 552.872 165.815 553.287 173.867 L 553.287 173.867 L 553.287 173.867 Q 553.702 181.919 555.362 188.56 L 555.362 188.56 L 545.567 188.56 L 545.567 188.56 Q 544.903 184.077 544.571 180.591 L 544.571 180.591 L 544.571 180.591 Q 544.239 177.104 543.907 174.116 L 543.907 174.116 L 543.907 174.116 Q 543.077 167.144 541.915 161.997 Z " fill="rgb(0,0,0)"/><path d=" M 541.251 136.265 L 541.251 136.265 L 541.251 136.265 Q 541.251 126.636 531.788 126.636 L 531.788 126.636 L 531.788 126.636 Q 530.626 126.47 529.464 126.47 L 529.464 126.47 L 529.464 126.47 Q 517.345 126.47 503.897 138.091 L 503.897 138.091 L 503.897 138.091 Q 497.589 143.403 493.106 150.044 L 493.106 150.044 L 493.106 150.044 Q 486.466 159.507 486.466 166.978 L 486.466 166.978 L 486.466 166.978 Q 486.466 176.772 497.755 178.599 L 497.755 178.599 L 497.755 178.599 Q 512.696 178.267 526.31 164.985 L 526.31 164.985 L 526.31 164.985 Q 532.12 159.175 535.938 152.368 L 535.938 152.368 L 535.938 152.368 Q 541.251 143.237 541.251 136.265 Z " fill="rgb(0,0,0)"/><path d=" M 644.679 128.96 L 644.679 128.96 L 644.679 128.96 Q 637.706 123.979 626.749 123.979 L 626.749 123.979 L 626.749 123.979 Q 616.456 123.979 607.657 127.798 L 607.657 127.798 L 607.657 127.798 Q 591.056 134.771 584.913 145.728 L 584.913 145.728 L 584.913 145.728 Q 582.257 150.708 582.257 156.353 L 582.257 156.353 L 582.257 156.353 Q 582.257 157.349 582.257 161.914 L 582.257 161.914 L 582.257 161.914 Q 582.257 166.479 583.917 174.199 L 583.917 174.199 L 583.917 174.199 Q 585.577 181.919 585.577 189.888 L 585.577 189.888 L 585.577 189.888 Q 582.091 190.054 579.933 190.718 L 579.933 190.718 L 579.933 190.718 Q 577.774 191.382 576.28 191.382 L 576.28 191.382 L 576.28 191.382 Q 574.786 191.382 573.707 190.054 L 573.707 190.054 L 573.707 190.054 Q 572.628 188.726 571.3 184.907 L 571.3 184.907 L 571.3 184.907 Q 571.134 183.911 570.636 179.263 L 570.636 179.263 L 570.636 179.263 Q 570.138 174.614 569.391 167.974 L 569.391 167.974 L 569.391 167.974 Q 568.644 161.333 567.73 153.447 L 567.73 153.447 L 567.73 153.447 Q 566.817 145.562 565.987 137.925 L 565.987 137.925 L 565.987 137.925 Q 564.161 121.323 563.165 113.521 L 563.165 113.521 L 563.165 113.521 Q 563.165 109.536 568.976 109.536 L 568.976 109.536 L 568.976 109.536 Q 572.462 109.536 574.454 112.441 L 574.454 112.441 L 574.454 112.441 Q 576.446 115.347 577.608 119.082 L 577.608 119.082 L 577.608 119.082 Q 578.771 122.817 579.186 126.47 L 579.186 126.47 L 579.186 126.47 Q 579.601 130.122 579.933 131.616 L 579.933 131.616 L 579.933 131.616 Q 601.847 112.026 634.386 112.026 L 634.386 112.026 L 634.386 112.026 Q 638.038 112.026 642.022 112.192 L 642.022 112.192 L 642.022 112.192 Q 643.019 112.026 644.513 112.026 L 644.513 112.026 L 644.513 112.026 Q 646.007 112.026 647.501 114.019 L 647.501 114.019 L 647.501 114.019 Q 649.327 116.343 649.327 119.663 L 649.327 119.663 L 649.327 119.663 Q 649.327 127.964 644.679 128.96 Z " fill="rgb(0,0,0)"/><path d=" M 690.831 177.935 L 690.831 177.935 L 690.831 177.935 Q 705.44 177.935 734.825 164.653 L 734.825 164.653 L 734.825 164.653 Q 736.651 164.653 737.813 165.898 L 737.813 165.898 L 737.813 165.898 Q 738.976 167.144 738.976 168.804 L 738.976 168.804 L 738.976 168.804 Q 732.335 180.093 713.575 186.401 L 713.575 186.401 L 713.575 186.401 Q 694.815 192.71 678.546 188.56 L 678.546 188.56 L 678.546 188.56 Q 660.118 183.745 656.134 167.808 L 656.134 167.808 L 656.134 167.808 Q 655.802 164.653 655.802 159.341 L 655.802 159.341 L 655.802 159.341 Q 655.802 154.028 658.541 145.313 L 658.541 145.313 L 658.541 145.313 Q 661.28 136.597 667.921 128.794 L 667.921 128.794 L 667.921 128.794 Q 674.562 120.991 683.526 116.509 L 683.526 116.509 L 683.526 116.509 Q 692.491 112.026 702.618 112.026 L 702.618 112.026 L 702.618 112.026 Q 712.247 112.026 724.2 118.667 L 724.2 118.667 L 724.2 118.667 Q 729.845 121.821 733.165 125.806 L 733.165 125.806 L 733.165 125.806 Q 736.485 129.79 736.485 133.94 L 736.485 133.94 L 736.485 133.94 Q 736.485 135.103 736.319 136.265 L 736.319 136.265 L 736.319 136.265 Q 735.987 146.392 726.524 149.048 L 726.524 149.048 L 726.524 149.048 Q 722.374 150.21 716.896 150.21 L 716.896 150.21 L 692.989 149.214 L 692.989 149.214 Q 681.036 149.214 674.728 154.36 L 674.728 154.36 L 674.728 154.36 Q 671.075 157.183 669.581 162.827 L 669.581 162.827 L 669.581 162.827 Q 673.731 177.935 690.831 177.935 Z " fill="rgb(0,0,0)"/><path d=" M 720.465 126.636 L 720.465 126.636 L 720.465 126.636 Q 716.729 123.979 712.745 122.817 L 712.745 122.817 L 712.745 122.817 Q 708.761 121.655 706.104 121.655 L 706.104 121.655 L 706.104 121.655 Q 703.448 121.655 697.472 123.398 L 697.472 123.398 L 697.472 123.398 Q 691.495 125.142 686.847 127.3 L 686.847 127.3 L 686.847 127.3 Q 675.392 132.612 675.392 138.423 L 675.392 138.423 L 675.392 138.423 Q 688.673 139.585 695.313 139.585 L 695.313 139.585 L 695.313 139.585 Q 713.741 139.585 720.216 136.431 L 720.216 136.431 L 720.216 136.431 Q 724.2 134.771 724.2 132.28 L 724.2 132.28 L 724.2 132.28 Q 724.2 129.292 720.465 126.636 Z " fill="rgb(0,0,0)"/><path d=" M 813.517 163.325 L 813.683 153.198 L 813.683 153.198 Q 813.683 133.442 811.524 124.146 L 811.524 124.146 L 811.524 124.146 Q 812.853 121.655 807.54 121.655 L 807.54 121.655 L 807.54 121.655 Q 801.896 121.655 792.931 124.478 L 792.931 124.478 L 792.931 124.478 Q 783.966 127.3 778.321 130.122 L 778.321 130.122 L 778.321 130.122 Q 764.874 136.597 763.38 142.739 L 763.38 142.739 L 763.38 187.896 L 752.257 187.896 L 752.257 187.896 Q 750.099 182.251 750.099 156.187 L 750.099 156.187 L 750.099 156.187 Q 750.099 132.944 751.012 121.987 L 751.012 121.987 L 751.012 121.987 Q 751.925 111.03 752.423 109.536 L 752.423 109.536 L 752.423 109.536 Q 756.739 106.714 759.396 106.714 L 759.396 106.714 L 759.396 106.714 Q 763.546 106.714 763.546 116.509 L 763.546 116.509 L 763.546 116.509 Q 763.546 120.327 763.131 123.896 L 763.131 123.896 L 763.131 123.896 Q 762.716 127.466 762.716 128.794 L 762.716 128.794 L 762.716 128.794 Q 789.61 109.038 804.386 109.038 L 804.386 109.038 L 804.386 109.038 Q 821.153 109.038 823.478 136.099 L 823.478 136.099 L 823.478 136.099 Q 824.474 145.562 824.474 162.329 L 824.474 162.329 L 824.308 175.444 L 824.308 175.444 Q 824.308 182.749 824.64 189.556 L 824.64 189.556 L 824.64 189.556 Q 822.979 190.552 821.983 190.552 L 821.983 190.552 L 821.983 190.552 Q 821.485 190.386 819.825 190.054 L 819.825 190.054 L 819.825 190.054 Q 818.165 189.722 815.509 189.556 L 815.509 189.556 L 815.509 189.556 Q 813.849 182.915 813.683 176.025 L 813.683 176.025 L 813.683 176.025 Q 813.517 169.136 813.517 163.325 L 813.517 163.325 Z " fill="rgb(0,0,0)"/><path d=" M 859.005 173.618 L 859.005 173.618 L 859.337 147.056 L 859.337 147.056 Q 859.337 140.747 858.175 136.265 L 858.175 136.265 L 832.442 136.265 L 832.11 124.81 L 857.013 124.81 L 857.013 81.978 L 857.013 81.978 Q 857.511 80.483 859.005 78.989 L 859.005 78.989 L 859.005 78.989 Q 861.329 76.665 862.906 76.665 L 862.906 76.665 L 862.906 76.665 Q 864.483 76.665 865.646 76.997 L 865.646 76.997 L 865.646 76.997 Q 866.808 77.329 868.136 79.321 L 868.136 79.321 L 868.136 79.321 Q 870.792 90.278 870.792 112.358 L 870.792 112.358 L 870.792 112.358 Q 870.792 117.837 871.29 123.149 L 871.29 123.149 L 871.29 123.149 Q 876.603 122.485 881.915 122.485 L 881.915 122.485 L 881.915 122.485 Q 881.915 122.485 890.548 122.485 L 890.548 122.485 L 890.548 122.485 Q 893.702 122.485 896.358 122.153 L 896.358 122.153 L 895.86 134.106 L 871.622 133.442 L 872.452 190.718 L 872.452 190.718 Q 869.464 192.046 867.306 192.046 L 867.306 192.046 L 867.306 192.046 Q 859.005 192.046 859.005 173.618 Z " fill="rgb(0,0,0)"/><path d=" M 959.444 146.724 L 959.444 146.724 L 959.444 146.724 Q 977.706 146.724 977.706 156.021 L 977.706 156.021 L 977.706 156.021 Q 977.706 162.993 967.579 172.29 L 967.579 172.29 L 967.579 172.29 Q 952.472 186.069 926.905 194.37 L 926.905 194.37 L 926.905 194.37 Q 925.743 194.37 924.332 192.046 L 924.332 192.046 L 924.332 192.046 Q 922.921 189.722 922.174 188.477 L 922.174 188.477 L 922.174 188.477 Q 921.427 187.231 921.095 186.899 L 921.095 186.899 L 921.095 186.899 Q 940.187 180.591 952.472 171.626 L 952.472 171.626 L 952.472 171.626 Q 960.772 165.649 960.772 161.831 L 960.772 161.831 L 960.772 161.831 Q 960.772 158.013 950.978 158.013 L 950.978 158.013 L 950.978 158.013 Q 941.183 158.013 922.257 162.661 L 922.257 162.661 L 922.257 162.661 Q 913.624 162.329 907.315 156.519 L 907.315 156.519 L 907.315 156.519 Q 901.837 151.372 901.837 146.143 L 901.837 146.143 L 901.837 146.143 Q 901.837 140.913 904.825 136.514 L 904.825 136.514 L 904.825 136.514 Q 907.813 132.114 912.794 128.296 L 912.794 128.296 L 912.794 128.296 Q 917.774 124.478 924.415 121.323 L 924.415 121.323 L 924.415 121.323 Q 940.685 113.521 958.116 113.521 L 958.116 113.521 L 958.116 113.521 Q 963.263 113.521 968.077 114.517 L 968.077 114.517 L 968.077 114.517 Q 972.062 114.517 972.726 118.003 L 972.726 118.003 L 972.726 118.003 Q 973.39 121.489 973.39 129.458 L 973.39 129.458 L 973.39 129.458 Q 963.595 124.976 951.31 124.976 L 951.31 124.976 L 951.31 124.976 Q 936.036 124.976 926.075 131.118 L 926.075 131.118 L 926.075 131.118 Q 915.782 137.095 915.45 146.724 L 915.45 146.724 L 915.45 146.724 Q 915.45 151.372 922.257 151.372 L 922.257 151.372 L 934.376 150.044 L 934.376 150.044 Q 949.981 146.724 959.444 146.724 Z " fill="rgb(0,0,0)"/><path d=" M 27.765 117.007 L 27.765 117.007 L 27.433 75.669 L 40.714 76.167 L 39.22 173.452 L 126.71 175.942 L 126.71 175.942 Q 129.366 176.772 129.366 178.765 L 129.366 178.765 L 129.366 178.765 Q 129.366 180.757 126.876 182.915 L 126.876 182.915 L 126.876 182.915 Q 122.062 187.231 115.919 187.231 L 115.919 187.231 L 115.919 187.231 Q 114.425 187.231 112.765 186.899 L 112.765 186.899 L 23.614 186.069 L 23.614 186.069 Q 27.765 170.63 27.765 117.007 Z " fill="rgb(0,0,0)"/><path d=" M 170.538 177.935 L 170.538 177.935 L 170.538 177.935 Q 185.147 177.935 214.532 164.653 L 214.532 164.653 L 214.532 164.653 Q 216.358 164.653 217.521 165.898 L 217.521 165.898 L 217.521 165.898 Q 218.683 167.144 218.683 168.804 L 218.683 168.804 L 218.683 168.804 Q 212.042 180.093 193.282 186.401 L 193.282 186.401 L 193.282 186.401 Q 174.522 192.71 158.253 188.56 L 158.253 188.56 L 158.253 188.56 Q 139.825 183.745 135.841 167.808 L 135.841 167.808 L 135.841 167.808 Q 135.509 164.653 135.509 159.341 L 135.509 159.341 L 135.509 159.341 Q 135.509 154.028 138.248 145.313 L 138.248 145.313 L 138.248 145.313 Q 140.987 136.597 147.628 128.794 L 147.628 128.794 L 147.628 128.794 Q 154.269 120.991 163.233 116.509 L 163.233 116.509 L 163.233 116.509 Q 172.198 112.026 182.325 112.026 L 182.325 112.026 L 182.325 112.026 Q 191.954 112.026 203.907 118.667 L 203.907 118.667 L 203.907 118.667 Q 209.552 121.821 212.872 125.806 L 212.872 125.806 L 212.872 125.806 Q 216.192 129.79 216.192 133.94 L 216.192 133.94 L 216.192 133.94 Q 216.192 135.103 216.026 136.265 L 216.026 136.265 L 216.026 136.265 Q 215.694 146.392 206.231 149.048 L 206.231 149.048 L 206.231 149.048 Q 202.081 150.21 196.603 150.21 L 196.603 150.21 L 172.696 149.214 L 172.696 149.214 Q 160.743 149.214 154.435 154.36 L 154.435 154.36 L 154.435 154.36 Q 150.782 157.183 149.288 162.827 L 149.288 162.827 L 149.288 162.827 Q 153.438 177.935 170.538 177.935 Z " fill="rgb(0,0,0)"/><path d=" M 200.172 126.636 L 200.172 126.636 L 200.172 126.636 Q 196.437 123.979 192.452 122.817 L 192.452 122.817 L 192.452 122.817 Q 188.468 121.655 185.812 121.655 L 185.812 121.655 L 185.812 121.655 Q 183.155 121.655 177.179 123.398 L 177.179 123.398 L 177.179 123.398 Q 171.202 125.142 166.554 127.3 L 166.554 127.3 L 166.554 127.3 Q 155.099 132.612 155.099 138.423 L 155.099 138.423 L 155.099 138.423 Q 168.38 139.585 175.021 139.585 L 175.021 139.585 L 175.021 139.585 Q 193.448 139.585 199.923 136.431 L 199.923 136.431 L 199.923 136.431 Q 203.907 134.771 203.907 132.28 L 203.907 132.28 L 203.907 132.28 Q 203.907 129.292 200.172 126.636 Z " fill="rgb(0,0,0)"/><path d=" M 285.421 146.724 L 285.421 146.724 L 285.421 146.724 Q 303.683 146.724 303.683 156.021 L 303.683 156.021 L 303.683 156.021 Q 303.683 162.993 293.556 172.29 L 293.556 172.29 L 293.556 172.29 Q 278.448 186.069 252.882 194.37 L 252.882 194.37 L 252.882 194.37 Q 251.72 194.37 250.309 192.046 L 250.309 192.046 L 250.309 192.046 Q 248.897 189.722 248.15 188.477 L 248.15 188.477 L 248.15 188.477 Q 247.403 187.231 247.071 186.899 L 247.071 186.899 L 247.071 186.899 Q 266.163 180.591 278.448 171.626 L 278.448 171.626 L 278.448 171.626 Q 286.749 165.649 286.749 161.831 L 286.749 161.831 L 286.749 161.831 Q 286.749 158.013 276.954 158.013 L 276.954 158.013 L 276.954 158.013 Q 267.159 158.013 248.233 162.661 L 248.233 162.661 L 248.233 162.661 Q 239.601 162.329 233.292 156.519 L 233.292 156.519 L 233.292 156.519 Q 227.813 151.372 227.813 146.143 L 227.813 146.143 L 227.813 146.143 Q 227.813 140.913 230.802 136.514 L 230.802 136.514 L 230.802 136.514 Q 233.79 132.114 238.771 128.296 L 238.771 128.296 L 238.771 128.296 Q 243.751 124.478 250.392 121.323 L 250.392 121.323 L 250.392 121.323 Q 266.661 113.521 284.093 113.521 L 284.093 113.521 L 284.093 113.521 Q 289.239 113.521 294.054 114.517 L 294.054 114.517 L 294.054 114.517 Q 298.038 114.517 298.702 118.003 L 298.702 118.003 L 298.702 118.003 Q 299.366 121.489 299.366 129.458 L 299.366 129.458 L 299.366 129.458 Q 289.571 124.976 277.286 124.976 L 277.286 124.976 L 277.286 124.976 Q 262.013 124.976 252.052 131.118 L 252.052 131.118 L 252.052 131.118 Q 241.759 137.095 241.427 146.724 L 241.427 146.724 L 241.427 146.724 Q 241.427 151.372 248.233 151.372 L 248.233 151.372 L 260.353 150.044 L 260.353 150.044 Q 275.958 146.724 285.421 146.724 Z " fill="rgb(0,0,0)"/></g></svg>